<svg width="64" height="64" viewBox="0 0 64 64" fill="none" xmlns="http://www.w3.org/2000/svg">
  <defs>
    <linearGradient id="bg" x1="10" y1="8" x2="54" y2="56" gradientUnits="userSpaceOnUse">
      <stop stop-color="#D7FBFF" stop-opacity="0.96" />
      <stop offset="0.5" stop-color="#7EDBFF" stop-opacity="0.9" />
      <stop offset="1" stop-color="#317CFF" stop-opacity="0.92" />
    </linearGradient>
    <linearGradient id="glass" x1="16" y1="12" x2="50" y2="54" gradientUnits="userSpaceOnUse">
      <stop stop-color="white" stop-opacity="0.78" />
      <stop offset="1" stop-color="white" stop-opacity="0.14" />
    </linearGradient>
    <linearGradient id="letter" x1="22" y1="16" x2="42" y2="48" gradientUnits="userSpaceOnUse">
      <stop stop-color="#FFFFFF" />
      <stop offset="1" stop-color="#D8F6FF" />
    </linearGradient>
    <radialGradient id="glow" cx="0" cy="0" r="1" gradientUnits="userSpaceOnUse" gradientTransform="translate(31 25) rotate(90) scale(22)">
      <stop stop-color="#FFFFFF" stop-opacity="0.72" />
      <stop offset="1" stop-color="#FFFFFF" stop-opacity="0" />
    </radialGradient>
    <filter id="shadow" x="-10" y="-10" width="84" height="84" filterUnits="userSpaceOnUse">
      <feDropShadow dx="0" dy="2" stdDeviation="2.2" flood-color="#0A1840" flood-opacity="0.3" />
    </filter>
    <filter id="blur" x="-8" y="-8" width="80" height="80" filterUnits="userSpaceOnUse">
      <feGaussianBlur stdDeviation="4" />
    </filter>
  </defs>

  <rect width="64" height="64" rx="18" fill="url(#bg)" />
  <circle cx="31" cy="25" r="18" fill="url(#glow)" filter="url(#blur)" opacity="0.95" />

  <g filter="url(#shadow)">
    <rect
      x="12.5"
      y="12.5"
      width="39"
      height="39"
      rx="14"
      fill="url(#glass)"
      stroke="white"
      stroke-opacity="0.42"
      stroke-width="1.2"
    />

    <path
      d="M24 45V19.5H32.6C37.28 19.5 40.3 22.1 40.3 26.4C40.3 30.8 37.34 33.45 32.62 33.45H28.8V45H24ZM28.8 29.9H32.22C34.84 29.9 36.02 28.86 36.02 26.46C36.02 24.18 34.78 23.18 32.18 23.18H28.8V29.9Z"
      fill="url(#letter)"
    />

    <path
      d="M24 45V19.5H32.6C37.28 19.5 40.3 22.1 40.3 26.4C40.3 30.8 37.34 33.45 32.62 33.45H28.8V45H24Z"
      fill="none"
      stroke="white"
      stroke-opacity="0.34"
      stroke-width="0.9"
      stroke-linejoin="round"
    />
  </g>
</svg>
