<svg width="64" height="64" viewBox="0 0 64 64" fill="none" xmlns="http://www.w3.org/2000/svg">
  <defs>
    <linearGradient id="bg" x1="12" y1="8" x2="54" y2="58" gradientUnits="userSpaceOnUse">
      <stop stop-color="#B9F0FF" stop-opacity="0.96" />
      <stop offset="0.54" stop-color="#6FD8FF" stop-opacity="0.88" />
      <stop offset="1" stop-color="#2E7DFF" stop-opacity="0.9" />
    </linearGradient>
    <linearGradient id="glass" x1="20" y1="14" x2="46" y2="52" gradientUnits="userSpaceOnUse">
      <stop stop-color="white" stop-opacity="0.75" />
      <stop offset="1" stop-color="white" stop-opacity="0.12" />
    </linearGradient>
    <linearGradient id="metal" x1="23" y1="19" x2="40" y2="45" gradientUnits="userSpaceOnUse">
      <stop stop-color="#EDF9FF" />
      <stop offset="1" stop-color="#9DDFFF" />
    </linearGradient>
    <radialGradient id="glow" cx="0" cy="0" r="1" gradientUnits="userSpaceOnUse" gradientTransform="translate(33 29) rotate(90) scale(18)">
      <stop stop-color="#FFFFFF" stop-opacity="0.75" />
      <stop offset="1" stop-color="#FFFFFF" stop-opacity="0" />
    </radialGradient>
    <filter id="blur" x="-8" y="-8" width="80" height="80" filterUnits="userSpaceOnUse">
      <feGaussianBlur stdDeviation="3.5" />
    </filter>
    <filter id="shadow" x="-10" y="-10" width="84" height="84" filterUnits="userSpaceOnUse">
      <feDropShadow dx="0" dy="2" stdDeviation="2" flood-color="#0C1A3A" flood-opacity="0.34" />
    </filter>
  </defs>

  <rect width="64" height="64" rx="18" fill="url(#bg)" />
  <circle cx="33" cy="29" r="18" fill="url(#glow)" filter="url(#blur)" opacity="0.9" />

  <g filter="url(#shadow)">
    <path
      d="M24 21.5C24 20.12 25.12 19 26.5 19H31.9C33.28 19 34.4 20.12 34.4 21.5V27.7C34.4 28.25 34.6 28.79 34.96 29.2L41.05 36.1C42.14 37.34 41.27 39.3 39.63 39.3H25.08C23.41 39.3 22.52 37.28 23.66 36.05L28.7 30.63C29.08 30.22 29.29 29.67 29.29 29.1V21.5C29.29 20.12 30.41 19 31.79 19H33.05"
      fill="url(#glass)"
      stroke="white"
      stroke-opacity="0.55"
      stroke-width="1.4"
      stroke-linecap="round"
      stroke-linejoin="round"
    />

    <path
      d="M38.7 17.7L42.3 14.1C42.9 13.5 43.89 13.5 44.49 14.1L46.84 16.45C47.44 17.05 47.44 18.04 46.84 18.64L43.24 22.24"
      stroke="url(#metal)"
      stroke-width="3.2"
      stroke-linecap="round"
      stroke-linejoin="round"
    />

    <path
      d="M31.7 30.2L26.2 35.7"
      stroke="url(#metal)"
      stroke-width="3.6"
      stroke-linecap="round"
    />

    <path
      d="M35.4 38.1C36.3 38.1 37.04 38.84 37.04 39.74V43.62C37.04 44.34 37.46 44.98 38.11 45.26L40.32 46.21C41.15 46.57 41.52 47.55 41.09 48.32C40.9 48.67 40.58 48.94 40.19 49.08L33.97 51.25C32.86 51.63 31.64 51.09 31.16 50.01L29.36 45.99C29.02 45.24 29.19 44.35 29.79 43.79L32.64 41.1"
      fill="#EAFBFF"
      fill-opacity="0.22"
      stroke="white"
      stroke-opacity="0.46"
      stroke-width="1.2"
      stroke-linecap="round"
      stroke-linejoin="round"
    />
  </g>

  <circle cx="42.6" cy="21.1" r="1.2" fill="white" fill-opacity="0.92" />
  <circle cx="40.5" cy="23.9" r="0.75" fill="white" fill-opacity="0.7" />
</svg>
